<svg width="15" height="18" viewBox="0 0 15 18" fill="none" xmlns="http://www.w3.org/2000/svg">
<path d="M8.75116 13.5H6.68701V16" stroke="#808285" stroke-width="1.5" stroke-linecap="round" stroke-linejoin="round"/>
<path d="M12.9715 13.9887C12.522 15.5797 11.2461 16.6066 9.86083 16.4921C8.47561 16.3776 7.32668 15.1503 7.05981 13.5" stroke="#808285" stroke-width="1.5" stroke-linecap="round" stroke-linejoin="round"/>
<path d="M11.2283 11.5H13.2924V9" stroke="#808285" stroke-width="1.5" stroke-linecap="round" stroke-linejoin="round"/>
<path d="M7.00806 11.0114C7.45757 9.42031 8.73353 8.39345 10.1187 8.50796C11.504 8.62246 12.6529 9.84976 12.9198 11.5" stroke="#808285" stroke-width="1.5" stroke-linecap="round" stroke-linejoin="round"/>
<path d="M11.641 6.5V2.5C11.641 1.94772 11.2714 1.5 10.8154 1.5H1.73313C1.27713 1.5 0.907471 1.94772 0.907471 2.5V10.5C0.907471 11.0523 1.27713 11.5 1.73313 11.5H5.03576" stroke="#808285" stroke-width="1.5" stroke-linecap="round" stroke-linejoin="round"/>
<path d="M0.907471 4.5H11.641" stroke="#808285" stroke-width="1.5" stroke-linecap="round" stroke-linejoin="round"/>
<path d="M2.55884 7H5.86147" stroke="#808285" stroke-width="1.5" stroke-linecap="round" stroke-linejoin="round"/>
<path d="M2.55884 9H4.21015" stroke="#808285" stroke-width="1.5" stroke-linecap="round" stroke-linejoin="round"/>
</svg>
