<svg width="20" height="20" viewBox="0 0 20 20" fill="none" xmlns="http://www.w3.org/2000/svg">
<path d="M16.141 18.25H3.81523C2.95711 18.25 2.255 17.5 2.255 16.5833V5.41667C2.255 4.5 2.95711 3.75 3.81523 3.75H16.141C16.9991 3.75 17.7012 4.5 17.7012 5.41667V16.5833C17.7012 17.5 16.9991 18.25 16.141 18.25ZM3.81523 5.08333C3.5812 5.08333 3.42517 5.25 3.42517 5.5V16.6667C3.42517 16.9167 3.5812 17.0833 3.81523 17.0833H16.141C16.375 17.0833 16.5311 16.9167 16.5311 16.6667V5.41667C16.5311 5.16667 16.375 5 16.141 5H3.81523V5.08333Z" fill="#313131"/>
<path d="M17.0771 9.08333H2.87909C2.56705 9.08333 2.255 8.83333 2.255 8.41667C2.255 8 2.48904 7.75 2.87909 7.75H17.0771C17.3892 7.75 17.7012 8 17.7012 8.41667C17.7012 8.83333 17.3892 9.08333 17.0771 9.08333Z" fill="#313131"/>
<path d="M6.62359 6.58333C6.31155 6.58333 6.07751 6.33333 6.07751 5.91667V2.41667C6.07751 2.08333 6.31155 1.75 6.7016 1.75C7.09166 1.75 7.32569 2 7.32569 2.41667V6C7.24768 6.33333 7.01365 6.58333 6.62359 6.58333Z" fill="#313131"/>
<path d="M13.3326 6.58333C13.0205 6.58333 12.7085 6.33333 12.7085 5.91667V2.41667C12.7085 2.08333 12.9425 1.75 13.3326 1.75C13.7226 1.75 13.8787 2.08333 13.8787 2.41667V6C13.8787 6.33333 13.6446 6.58333 13.3326 6.58333Z" fill="#313131"/>
<path d="M5.92148 12.1667C5.45341 12.1667 5.06335 11.75 5.06335 11.25C5.06335 10.75 5.45341 10.3334 5.92148 10.3334C6.38955 10.3334 6.7796 10.75 6.7796 11.25C6.7796 11.75 6.38955 12.1667 5.92148 12.1667Z" fill="#313131"/>
<path d="M5.92148 15.6666C5.45341 15.6666 5.06335 15.25 5.06335 14.75C5.06335 14.25 5.45341 13.8333 5.92148 13.8333C6.38955 13.8333 6.7796 14.25 6.7796 14.75C6.7796 15.25 6.38955 15.6666 5.92148 15.6666Z" fill="#313131"/>
<path d="M9.97812 12.1667C9.51005 12.1667 9.12 11.75 9.12 11.25C9.12 10.75 9.51005 10.3334 9.97812 10.3334C10.4462 10.3334 10.8362 10.75 10.8362 11.25C10.8362 11.75 10.4462 12.1667 9.97812 12.1667Z" fill="#313131"/>
<path d="M9.97812 15.6666C9.51005 15.6666 9.12 15.25 9.12 14.75C9.12 14.25 9.51005 13.8333 9.97812 13.8333C10.4462 13.8333 10.8362 14.25 10.8362 14.75C10.8362 15.25 10.4462 15.6666 9.97812 15.6666Z" fill="#313131"/>
<path d="M14.0346 12.1667C13.5666 12.1667 13.1765 11.75 13.1765 11.25C13.1765 10.75 13.5666 10.3334 14.0346 10.3334C14.5027 10.3334 14.8928 10.75 14.8928 11.25C14.8928 11.75 14.4247 12.1667 14.0346 12.1667Z" fill="#313131"/>
<path d="M14.0346 15.6666C13.5666 15.6666 13.1765 15.25 13.1765 14.75C13.1765 14.25 13.5666 13.8333 14.0346 13.8333C14.5027 13.8333 14.8928 14.25 14.8928 14.75C14.8928 15.25 14.4247 15.6666 14.0346 15.6666Z" fill="#313131"/>
</svg>
